<mxfile host="app.diagrams.net" modified="2022-07-20T03:35:05.292Z" agent="5.0 (X11)" etag="sKJ6ZvEg9bE8mAh3mEzi" version="20.1.2" type="github">
  <diagram id="UgcOQwADUB6zo-OJqIzN" name="Page-1">
    <mxGraphModel dx="1348" dy="793" grid="1" gridSize="10" guides="1" tooltips="1" connect="1" arrows="1" fold="1" page="1" pageScale="1" pageWidth="850" pageHeight="1100" math="0" shadow="0">
      <root>
        <mxCell id="0" />
        <mxCell id="1" parent="0" />
        <mxCell id="RDs8-c9kFTobXYWLbrdQ-1" value="Uni" style="rounded=1;whiteSpace=wrap;html=1;" vertex="1" parent="1">
          <mxGeometry x="200" y="140" width="350" height="30" as="geometry" />
        </mxCell>
        <mxCell id="RDs8-c9kFTobXYWLbrdQ-2" value="Tenant A" style="rounded=1;whiteSpace=wrap;html=1;" vertex="1" parent="1">
          <mxGeometry x="200" y="190" width="350" height="30" as="geometry" />
        </mxCell>
        <mxCell id="RDs8-c9kFTobXYWLbrdQ-3" value="" style="rounded=1;whiteSpace=wrap;html=1;" vertex="1" parent="1">
          <mxGeometry x="400" y="240" width="160" height="190" as="geometry" />
        </mxCell>
        <mxCell id="RDs8-c9kFTobXYWLbrdQ-5" style="edgeStyle=orthogonalEdgeStyle;rounded=0;orthogonalLoop=1;jettySize=auto;html=1;exitX=0.5;exitY=1;exitDx=0;exitDy=0;" edge="1" parent="1" source="RDs8-c9kFTobXYWLbrdQ-4">
          <mxGeometry relative="1" as="geometry">
            <mxPoint x="260" y="440" as="targetPoint" />
          </mxGeometry>
        </mxCell>
        <mxCell id="RDs8-c9kFTobXYWLbrdQ-4" value="&lt;p style=&quot;line-height: 3.2;&quot;&gt;&lt;br&gt;&lt;/p&gt;" style="rounded=1;whiteSpace=wrap;html=1;" vertex="1" parent="1">
          <mxGeometry x="200" y="240" width="160" height="190" as="geometry" />
        </mxCell>
        <mxCell id="RDs8-c9kFTobXYWLbrdQ-6" value="VRFs" style="rounded=1;whiteSpace=wrap;html=1;" vertex="1" parent="1">
          <mxGeometry x="220" y="280" width="120" height="20" as="geometry" />
        </mxCell>
        <mxCell id="RDs8-c9kFTobXYWLbrdQ-9" value="Networking" style="text;html=1;resizable=0;autosize=1;align=center;verticalAlign=middle;points=[];fillColor=none;strokeColor=none;rounded=0;" vertex="1" parent="1">
          <mxGeometry x="230" y="240" width="100" height="30" as="geometry" />
        </mxCell>
        <mxCell id="RDs8-c9kFTobXYWLbrdQ-11" value="Bridge Domains" style="rounded=1;whiteSpace=wrap;html=1;" vertex="1" parent="1">
          <mxGeometry x="220" y="305" width="120" height="25" as="geometry" />
        </mxCell>
        <mxCell id="RDs8-c9kFTobXYWLbrdQ-12" value="Subnets" style="rounded=1;whiteSpace=wrap;html=1;" vertex="1" parent="1">
          <mxGeometry x="220" y="340" width="120" height="20" as="geometry" />
        </mxCell>
        <mxCell id="RDs8-c9kFTobXYWLbrdQ-13" value="External Networks" style="rounded=1;whiteSpace=wrap;html=1;" vertex="1" parent="1">
          <mxGeometry x="220" y="370" width="120" height="20" as="geometry" />
        </mxCell>
        <mxCell id="RDs8-c9kFTobXYWLbrdQ-14" value="&lt;font style=&quot;font-size: 11px;&quot;&gt;Application Profilies&lt;/font&gt;" style="rounded=1;whiteSpace=wrap;html=1;" vertex="1" parent="1">
          <mxGeometry x="420" y="280" width="120" height="20" as="geometry" />
        </mxCell>
        <mxCell id="RDs8-c9kFTobXYWLbrdQ-15" value="EGPs" style="rounded=1;whiteSpace=wrap;html=1;" vertex="1" parent="1">
          <mxGeometry x="420" y="305" width="120" height="25" as="geometry" />
        </mxCell>
        <mxCell id="RDs8-c9kFTobXYWLbrdQ-16" value="Contracts" style="rounded=1;whiteSpace=wrap;html=1;" vertex="1" parent="1">
          <mxGeometry x="420" y="340" width="120" height="20" as="geometry" />
        </mxCell>
        <mxCell id="RDs8-c9kFTobXYWLbrdQ-17" value="Filters" style="rounded=1;whiteSpace=wrap;html=1;" vertex="1" parent="1">
          <mxGeometry x="420" y="370" width="120" height="20" as="geometry" />
        </mxCell>
        <mxCell id="RDs8-c9kFTobXYWLbrdQ-18" value="Policy" style="text;html=1;resizable=0;autosize=1;align=center;verticalAlign=middle;points=[];fillColor=none;strokeColor=none;rounded=0;" vertex="1" parent="1">
          <mxGeometry x="450" y="240" width="60" height="30" as="geometry" />
        </mxCell>
      </root>
    </mxGraphModel>
  </diagram>
</mxfile>
